<svg xmlns="http://www.w3.org/2000/svg" width="448" height="448" viewBox="0 0 448 448">
  <path id="Path_6769" data-name="Path 6769" d="M0,72A39.989,39.989,0,0,1,40,32H88a39.989,39.989,0,0,1,40,40v48a39.989,39.989,0,0,1-40,40H40A39.989,39.989,0,0,1,0,120ZM0,232a39.989,39.989,0,0,1,40-40H88a39.989,39.989,0,0,1,40,40v48a39.989,39.989,0,0,1-40,40H40A39.989,39.989,0,0,1,0,280ZM128,392v48a39.989,39.989,0,0,1-40,40H40A39.989,39.989,0,0,1,0,440V392a39.989,39.989,0,0,1,40-40H88A39.989,39.989,0,0,1,128,392ZM160,72a39.989,39.989,0,0,1,40-40h48a39.989,39.989,0,0,1,40,40v48a39.989,39.989,0,0,1-40,40H200a39.989,39.989,0,0,1-40-40ZM288,232v48a39.989,39.989,0,0,1-40,40H200a39.989,39.989,0,0,1-40-40V232a39.989,39.989,0,0,1,40-40h48A39.989,39.989,0,0,1,288,232ZM160,392a39.989,39.989,0,0,1,40-40h48a39.989,39.989,0,0,1,40,40v48a39.989,39.989,0,0,1-40,40H200a39.989,39.989,0,0,1-40-40ZM448,72v48a39.989,39.989,0,0,1-40,40H360a39.989,39.989,0,0,1-40-40V72a39.989,39.989,0,0,1,40-40h48A39.989,39.989,0,0,1,448,72ZM320,232a39.989,39.989,0,0,1,40-40h48a39.989,39.989,0,0,1,40,40v48a39.989,39.989,0,0,1-40,40H360a39.989,39.989,0,0,1-40-40ZM448,392v48a39.989,39.989,0,0,1-40,40H360a39.989,39.989,0,0,1-40-40V392a39.989,39.989,0,0,1,40-40h48A39.989,39.989,0,0,1,448,392Z" transform="translate(0 -32)" fill="#ed1c24"/>
</svg>
